<svg xmlns="http://www.w3.org/2000/svg" viewBox="0 0 1479.92 1003.4"><defs><style>.cls-1{fill:#8b72b6;stroke:#8b72b6;stroke-miterlimit:10;}</style></defs><title>Asset 1</title><g id="Layer_2" data-name="Layer 2"><g id="Layer_2-2" data-name="Layer 2"><path class="cls-1" d="M472,75.41C526.31,29.57,624.07-5.28,700,1.3c112,9.7,205.78,112.45,272.9,182.53,64.44,67.29,223.25,200.08,279.12,299.07,78.39,138.92,48.54,199.47-1.18,282.4S1040.42,973.2,942.31,995.39c-107.5,24.32-238.56-17.43-266.7-26.15-29.08-9-83.92-24.31-131.75-35.54C498.31,923,375,887.89,342.06,791c-29.26-86-60.07-304.12-34.91-446.67C333.49,195.09,428.44,112.21,472,75.41Z"/><path class="cls-1" d="M1324.92,178.92c9.61-12,29.22-23.17,43.78-22,21.43,1.73,41.25,9,48,12.58s23.72,8.5,30.88,10.29,29,9.22,31.29,25.33-1.75,27.48-13.39,36-16.11,9.85-22.37,16.56S1423.82,281,1414,286.32s-26,16-43.26-9.54C1360,260.91,1346,251.91,1337,246.32c-9.9-6.11-23.83-17-25.06-30.42C1310.44,199.68,1317.91,187.69,1324.92,178.92Z"/><path class="cls-1" d="M4.51,790.86C11.39,773.41,40,750,68,752.16c31.87,2.48,46.17,9.9,56.68,13.72s33.57,9.63,38.58,21c5.1,11.54,2.58,20.16-.93,32.27s-4.78,28.36-5.1,32.82-1.59,34.74-25.17,44-51.62,11.15-73.29-5.42-24.85-23.26-33.46-30.27S-9.41,826.14,4.51,790.86Z"/></g></g></svg>