<svg xmlns="http://www.w3.org/2000/svg" viewBox="0 0 1678.59 1077.76"><defs><style>.cls-1{fill:#fff;stroke:#fff;}.cls-1,.cls-2{stroke-miterlimit:10;}.cls-2{fill:#8b72b6;stroke:#8b72b6;}</style></defs><title>Asset 6</title><g id="Layer_2" data-name="Layer 2"><g id="Layer_2-2" data-name="Layer 2"><rect class="cls-1" x="0.5" y="0.5" width="1677.59" height="1076.76"/><path class="cls-2" d="M577.05,111.12c54.29-45.85,152-80.69,228-74.12,112.05,9.71,205.78,112.45,272.89,182.53,64.45,67.29,223.26,200.09,279.12,299.08,78.4,138.92,48.55,199.46-1.17,282.39s-210.42,207.9-308.53,230.1c-107.5,24.31-238.56-17.43-266.7-26.15-29.08-9-83.92-24.32-131.75-35.55C603.34,958.71,480,923.6,447.09,826.74c-29.26-86-60.07-304.11-34.91-446.67C438.52,230.79,533.47,147.91,577.05,111.12Z"/><path class="cls-2" d="M1430,214.62c9.61-12,29.21-23.16,43.78-22,21.43,1.74,41.25,9,48,12.58s23.72,8.51,30.88,10.3,29,9.21,31.29,25.32-1.75,27.48-13.39,36-16.11,9.84-22.37,16.55S1528.85,316.66,1519,322s-26,16-43.26-9.54C1465,296.62,1451.06,287.61,1442,282c-9.9-6.11-23.83-17-25.06-30.41C1415.47,235.38,1422.94,223.39,1430,214.62Z"/><path class="cls-2" d="M109.53,826.56c6.89-17.45,35.48-40.87,63.51-38.69,31.87,2.47,46.17,9.89,56.68,13.72s33.57,9.63,38.58,21c5.1,11.55,2.57,20.17-.93,32.28s-4.78,28.36-5.1,32.82-1.59,34.73-25.17,44-51.62,11.15-73.29-5.42S139,903,130.35,895.94,95.62,861.85,109.53,826.56Z"/></g></g></svg>