<svg xmlns="http://www.w3.org/2000/svg" viewBox="0 0 65.3 65.01"><defs><style>.cls-1{fill:#edc951;stroke:#edc951;stroke-miterlimit:10;}.cls-2,.cls-3{fill:none;stroke:#000;stroke-linejoin:round;stroke-width:2px;}.cls-3{stroke-linecap:round;}.cls-4{fill:#53ecf5;}</style></defs><title>Asset 3</title><g id="Layer_2" data-name="Layer 2"><g id="Layer_2-2" data-name="Layer 2"><circle class="cls-1" cx="35.23" cy="34.95" r="29.56"/><circle class="cls-2" cx="30.56" cy="30.56" r="29.56"/><path class="cls-3" d="M16.29,26.73A4.13,4.13,0,0,1,20.2,24a3.64,3.64,0,0,1,3.62,3.19"/><path class="cls-3" d="M36.47,26.73A4.14,4.14,0,0,1,40.39,24,3.66,3.66,0,0,1,44,27.16"/><path class="cls-3" d="M19.24,48.88s2.35-9.56,12.52-9.56C42.51,39.32,45.23,48,45.23,48"/><path class="cls-4" d="M19.85,5.79s-10,14.55.58,14.45S19.85,5.79,19.85,5.79Z"/><path class="cls-3" d="M14.65,3.16s-9.1,14.45.58,14.45S14.65,3.16,14.65,3.16Z"/></g></g></svg>